# xmcd
#
# Track frame offsets: 
#        150
#        15288
#        31490
#        43649
#        60382
#        71904
#        83417
#        100002
#        108491
#        131417
#        142394
#        156874
#
# Disc length: 2231 seconds
#
# Revision: 0
# Processed by: cddbd v1.5.2PL0 Copyright (c) Steve Scherf et al.
# Submitted via: ExactAudioCopyFreeDBPlugin 1.0
#
DISCID=9908b50c
DTITLE=Lindsay Beaver - Tough as Love
DYEAR=2018
DGENRE=Blues
TTITLE0=You're Evil
TTITLE1=Too Cold To Cry
TTITLE2=What A Fool You've Been
TTITLE3=You Hurt Me
TTITLE4=Don't Be Afraid Of Love
TTITLE5=I Got Love If You Want It
TTITLE6=Dangerous
TTITLE7=Oh Yeah
TTITLE8=Lost Cause
TTITLE9=She'll Be Gone
TTITLE10=Let's Rock
TTITLE11=Mean To Me
EXTD=
EXTT0=
EXTT1=
EXTT2=
EXTT3=
EXTT4=
EXTT5=
EXTT6=
EXTT7=
EXTT8=
EXTT9=
EXTT10=
EXTT11=
PLAYORDER=
